<svg xmlns="http://www.w3.org/2000/svg" version="1.1" xmlns:xlink="http://www.w3.org/1999/xlink" xmlns:svgjs="http://svgjs.dev/svgjs" width="100%" height="100%" viewBox="0 0 1000 600"><rect width="1000" height="600" x="0" y="0" fill="#ffffff"/><g><rect width="333.3333333333333" height="333.3333333333333" rx="13.333333333333334" ry="13.333333333333334" y="238.59060051187873" fill="#14395b" transform="matrix(0.5777183510203161,0,0,0.5777183510203161,0,65.87542548409182)" x="216.3683624267578"/><path d="M358.9117761140039 462.0708788357283L428.17029103023424 462.0708788357283L428.17029103023424 480.257251025103L337.8997527084288 480.257251025103L337.8997527084288 330.25725561191325L358.9117761140039 330.25725561191325L358.9117761140039 462.0708788357283Z " fill="#ffffff" transform="matrix(0.5777183510203161,0,0,0.5777183510203161,0,65.87542548409182)"/><path d="M651.491280388655 461.8010037862426L712.3256431508694 461.8010037862426L712.3256431508694 477.7753047719803L633.0350218943895 477.7753047719803L633.0350218943895 346.0203263937471L651.491280388655 346.0203263937471L651.491280388655 461.8010037862426ZM815.5381101810324 428.3473850276812L815.5381101810324 428.3473850276812Q815.5381101810324 440.1234812915473 812.1320195576271 449.6288504731433Q808.6995251309397 459.1342196547393 802.5210351629023 465.9992085081141Q796.3425451948649 472.8377935582068 787.7877129314286 476.5343260177164Q779.2328806679922 480.25726228050814 769.1466278141875 480.25726228050814L769.1466278141875 480.25726228050814Q759.086778763665 480.25726228050814 750.5319465002287 476.5343260177164Q741.9771142367923 472.8377935582068 735.798624268755 465.9992085081141Q729.6201343007176 459.1342196547393 726.1876398740301 449.6288504731433Q722.781549250625 440.1234812915473 722.781549250625 428.3473850276812L722.781549250625 428.3473850276812Q722.781549250625 416.75611538679055 726.1876398740301 407.14513099206573Q729.6201343007176 397.5605504006231 735.798624268755 390.69556154724825Q741.9771142367923 383.85697649715553 750.5319465002287 380.160444037646Q759.086778763665 376.4375077748542 769.1466278141875 376.4375077748542L769.1466278141875 376.4375077748542Q779.2328806679922 376.4375077748542 787.7877129314286 380.160444037646Q796.3425451948649 383.85697649715553 802.5210351629023 390.69556154724825Q808.6995251309397 397.5605504006231 812.1320195576271 407.14513099206573Q815.5381101810324 416.75611538679055 815.5381101810324 428.3473850276812ZM797.108255490049 428.3473850276812L797.108255490049 428.3473850276812Q797.108255490049 411.6073737467594 789.583171554619 401.8379665323413Q782.0844914224709 392.04215551464097 769.1466278141875 392.04215551464097L769.1466278141875 392.04215551464097Q756.2351680091863 392.04215551464097 748.7100840737562 401.8379665323413Q741.2114039416082 411.6073737467594 741.2114039416082 428.3473850276812L741.2114039416082 428.3473850276812Q741.2114039416082 445.087396308603 748.7100840737562 454.8568035230211Q756.2351680091863 464.6526145407214 769.1466278141875 464.6526145407214L769.1466278141875 464.6526145407214Q782.0844914224709 464.6526145407214 789.583171554619 454.8568035230211Q797.108255490049 445.087396308603 797.108255490049 428.3473850276812ZM883.422288419597 480.04603185425043L883.422288419597 480.04603185425043Q871.4349617294731 480.04603185425043 862.404861006957 476.24388418161203Q853.3747602844408 472.44173650897363 847.1962703164033 465.603151458881Q841.017780348366 458.7645664087883 837.9813429709118 449.3648124403212Q834.9449055934574 439.9386546685718 834.9449055934574 428.5322116506567L834.9449055934574 428.5322116506567Q834.9449055934574 417.1257686327415 838.271784807016 407.6203994511455Q841.5986640205747 398.1150302695495 847.6715387754832 391.170830006328Q853.7444135303917 384.25303354638874 862.5896876299324 380.34527066062145Q871.4349617294731 376.4375077748542 882.2605210751797 376.4375077748542L882.2605210751797 376.4375077748542Q888.914279502297 376.4375077748542 895.5680379294141 377.5992751192715Q902.2217963565313 378.73463866040663 908.321074914722 381.19019236565225L908.321074914722 381.19019236565225L904.3341006191081 396.2139564332303Q900.320722520212 394.31288259691115 895.0927694703344 393.17751905577603Q889.8648164204565 392.04215551464097 883.9767682885234 392.04215551464097L883.9767682885234 392.04215551464097Q869.164234647203 392.04215551464097 861.2694974658219 401.36269807326147Q853.3747602844408 410.65683682859975 853.3747602844408 428.5322116506567L853.3747602844408 428.5322116506567Q853.3747602844408 436.5325640451666 855.1702189076311 443.1863224722838Q856.9920813341038 449.840080899401 860.8734404165888 454.592765490199Q864.781203302356 459.34545008099695 870.8540780572646 461.90661899937146Q876.9533566154553 464.4677879177459 885.6930155018672 464.4677879177459L885.6930155018672 464.4677879177459Q892.7164271749352 464.4677879177459 898.4196486838929 463.14759775363535Q904.1228701928505 461.8010037862426 907.3705379965625 460.2959869991566L907.3705379965625 460.2959869991566L909.8260917018081 475.10852064047697Q908.321074914722 476.05905755863654 905.4694641602432 476.93038306694956Q902.6178534057644 477.7753047719803 899.0005323561015 478.43539985403555Q895.3832113064386 479.0954949360908 891.2906217976958 479.5707633951707Q887.2244360922354 480.04603185425043 883.422288419597 480.04603185425043ZM962.3168526268437 465.04867158995455L962.3168526268437 465.04867158995455Q968.5745540047277 465.04867158995455 973.4328538086545 464.75822975385023Q978.2647498092991 464.4677879177459 981.512417613011 463.70207762256183L981.512417613011 463.70207762256183L981.512417613011 434.2354331596143Q979.6113437766919 433.28489624145465 975.3339276449738 432.6248011593994Q971.0565115132555 431.9647060773441 964.9572329550648 431.9647060773441L964.9572329550648 431.9647060773441Q960.9702586594508 431.9647060773441 956.5080159047573 432.5191859462705Q952.0457731500635 433.10006961847915 948.3228368872717 434.8955282416695Q944.6263044277623 436.71739066814206 942.1443469192344 439.8594432587252Q939.6887932139888 442.97509204602613 939.6887932139888 448.12383368605725L939.6887932139888 448.12383368605725Q939.6887932139888 457.62920286765325 945.7616679688973 461.3257353271628Q951.8609465270881 465.04867158995455 962.3168526268437 465.04867158995455ZM960.7854320364754 376.4375077748542L960.7854320364754 376.4375077748542Q971.4261647592064 376.4375077748542 978.7400182683789 379.2099071194864Q986.0802755808336 381.95590266083633 990.5425183355273 386.9990290877387Q995.0047610902209 392.04215551464097 996.9058349265401 398.98635577786246Q998.8069087628594 405.9041522378018 998.8069087628594 414.27415787826266L998.8069087628594 414.27415787826266L998.8069087628594 476.05905755863654Q996.5361816805892 476.45511460786975 992.4435921718465 477.11520968992505Q988.3510026631037 477.7753047719803 983.2286648263548 478.35618844418894Q978.0799231863236 478.91066831311537 972.0862598412617 479.3859367721952Q966.119000299482 479.86120523127494 960.2045483642668 479.86120523127494L960.2045483642668 479.86120523127494Q951.8609465270881 479.86120523127494 944.8111310507377 478.1449580179313Q937.7877193776696 476.45511460786975 932.6389777376385 472.732178345078Q927.5166399008895 469.03564588556844 924.6650291464107 462.9363673273777Q921.8134183919319 456.8634925724691 921.8134183919319 448.30866030903275L921.8134183919319 448.30866030903275Q921.8134183919319 440.1234812915473 925.1402976054904 434.2354331596143Q928.467176819049 428.3473850276812 934.1703983280066 424.7300639780182Q939.8736198369643 421.1127429283554 947.4779151822411 419.42289951829383Q955.0822105275179 417.7066523049501 963.4522161679788 417.7066523049501L963.4522161679788 417.7066523049501Q966.119000299482 417.7066523049501 968.9706110539607 417.99709414105445Q971.8222218084396 418.26113217387655 974.383390726814 418.73640063295636Q976.9445596451885 419.2116690920362 978.8456334815078 419.6077261412693Q980.746707317827 419.9773793872203 981.512417613011 420.16220601019575L981.512417613011 420.16220601019575L981.512417613011 415.2246947964223Q981.512417613011 410.86806725485746 980.5618806948514 406.59065112313925Q979.6113437766919 402.3132349914211 977.129386268164 398.98635577786246Q974.6738325629185 395.6594765643039 970.3964164312004 393.65278751485585Q966.119000299482 391.6460984654078 959.2540114461071 391.6460984654078L959.2540114461071 391.6460984654078Q950.5143525596952 391.6460984654078 943.9662093457071 392.8870772196717Q937.3916623284364 394.12805597393566 934.1703983280066 395.4482461380462L934.1703983280066 395.4482461380462L932.084497868712 380.82053911970127Q935.4905884921172 379.28911852933305 943.4909408866272 377.8633131520936Q951.464889477855 376.4375077748542 960.7854320364754 376.4375077748542ZM1060.2221551972823 464.83744116369684L1057.7401976887545 479.6763786082995Q1041.3962434570658 479.3067253623486 1034.5576584069731 472.65296693523135Q1027.692669553598 465.9992085081141 1027.692669553598 451.92598135869565L1027.692669553598 451.92598135869565L1027.692669553598 333.29369321172135L1045.3832177526797 330.2572558342671L1045.3832177526797 449.0743706042169Q1045.3832177526797 453.4309981457817 1046.1489280478638 456.28260890026047Q1046.914638343048 459.1342196547393 1048.6044817531094 460.850466868083Q1050.320728966453 462.5667140814267 1053.1723397209319 463.41163578645745Q1056.0239504754106 464.2829612947705 1060.2221551972823 464.83744116369684L1060.2221551972823 464.83744116369684ZM1097.6627482514575 378.91946528338207L1097.6627482514575 477.7753047719803L1079.9722000523761 477.7753047719803L1079.9722000523761 378.91946528338207L1097.6627482514575 378.91946528338207ZM1088.7382627420702 361.0440904613252L1088.7382627420702 361.0440904613252Q1083.9855781512722 361.0440904613252 1080.6586989377136 357.9020378707421Q1077.3318197241551 354.7863890834412 1077.3318197241551 349.45282082043457L1077.3318197241551 349.45282082043457Q1077.3318197241551 344.1192525574279 1080.6586989377136 341.00360377012703Q1083.9855781512722 337.8615511795439 1088.7382627420702 337.8615511795439L1088.7382627420702 337.8615511795439Q1093.4909473328682 337.8615511795439 1096.8178265464269 341.00360377012703Q1100.1447057599853 344.1192525574279 1100.1447057599853 349.45282082043457L1100.1447057599853 349.45282082043457Q1100.1447057599853 354.7863890834412 1096.8178265464269 357.9020378707421Q1093.4909473328682 361.0440904613252 1088.7382627420702 361.0440904613252ZM1193.666976985577 378.91946528338207L1193.666976985577 392.22698213761646Q1189.6800026899632 396.6100134824635 1183.1054556726926 404.5839620736912Q1176.5573124587042 412.55791066491895 1169.058632326556 422.27451027277266Q1161.533548391126 431.9647060773441 1154.0348682589781 442.60543880007515Q1146.509784323548 453.2461715228062 1140.8065628145905 462.9363673273777L1140.8065628145905 462.9363673273777L1195.1983975759451 462.9363673273777L1195.1983975759451 477.7753047719803L1119.7099239921038 477.7753047719803L1119.7099239921038 465.9992085081141Q1124.2777819599264 457.62920286765325 1130.9315403870435 447.5429500138486Q1137.5852988141608 437.4831009633262 1144.899152323333 427.50246332265044Q1152.2130058325056 417.52182568197463 1159.1572060957271 408.67655158243394Q1166.1014063589487 399.83127748289326 1171.2237441956977 393.7584027279847L1171.2237441956977 393.7584027279847L1122.3767081236072 393.7584027279847L1122.3767081236072 378.91946528338207L1193.666976985577 378.91946528338207ZM1251.068845321104 465.04867158995455L1251.068845321104 465.04867158995455Q1257.35295050227 465.04867158995455 1262.211250306197 464.75822975385023Q1267.0431463068414 464.4677879177459 1270.2908141105534 463.70207762256183L1270.2908141105534 463.70207762256183L1270.2908141105534 434.2354331596143Q1268.3897402742343 433.28489624145465 1264.112324142516 432.6248011593994Q1259.834908010798 431.9647060773441 1253.7356294526073 431.9647060773441L1253.7356294526073 431.9647060773441Q1249.7486551569932 431.9647060773441 1245.2864124022997 432.5191859462705Q1240.824169647606 433.10006961847915 1237.1012333848143 434.8955282416695Q1233.4047009253045 436.71739066814206 1230.922743416777 439.8594432587252Q1228.467189711531 442.97509204602613 1228.467189711531 448.12383368605725L1228.467189711531 448.12383368605725Q1228.467189711531 457.62920286765325 1234.5400644664396 461.3257353271628Q1240.6129392213481 465.04867158995455 1251.068845321104 465.04867158995455ZM1249.5638285340176 376.4375077748542L1249.5638285340176 376.4375077748542Q1260.2045612567488 376.4375077748542 1267.5184147659213 379.2099071194864Q1274.8322682750938 381.95590266083633 1279.3209148330695 386.9990290877387Q1283.7831575877633 392.04215551464097 1285.6842314240826 398.98635577786246Q1287.5853052604018 405.9041522378018 1287.5853052604018 414.27415787826266L1287.5853052604018 414.27415787826266L1287.5853052604018 476.05905755863654Q1285.2881743748494 476.45511460786975 1281.221988669389 477.11520968992505Q1277.129399160646 477.7753047719803 1271.980657520615 478.35618844418894Q1266.858319683866 478.91066831311537 1260.864656338804 479.3859367721952Q1254.870992993742 479.86120523127494 1248.982944861809 479.86120523127494L1248.982944861809 479.86120523127494Q1240.6129392213481 479.86120523127494 1233.5895275482799 478.1449580179313Q1226.5661158752118 476.45511460786975 1221.417374235181 472.732178345078Q1216.2950363984319 469.03564588556844 1213.443425643953 462.9363673273777Q1210.5918148894743 456.8634925724691 1210.5918148894743 448.30866030903275L1210.5918148894743 448.30866030903275Q1210.5918148894743 440.1234812915473 1213.918694103033 434.2354331596143Q1217.2455733165914 428.3473850276812 1222.9487948255492 424.7300639780182Q1228.6520163345067 421.1127429283554 1236.2563116797833 419.42289951829383Q1243.86060702506 417.7066523049501 1252.230612665521 417.7066523049501L1252.230612665521 417.7066523049501Q1254.870992993742 417.7066523049501 1257.722603748221 417.99709414105445Q1260.5742145027 418.26113217387655 1263.1617872243564 418.73640063295636Q1265.722956142731 419.2116690920362 1267.6240299790502 419.6077261412693Q1269.5251038153694 419.9773793872203 1270.2908141105534 420.16220601019575L1270.2908141105534 420.16220601019575L1270.2908141105534 415.2246947964223Q1270.2908141105534 410.86806725485746 1269.3402771923938 406.59065112313925Q1268.3897402742343 402.3132349914211 1265.9077827657063 398.98635577786246Q1263.4258252571788 395.6594765643039 1259.1484091254604 393.65278751485585Q1254.870992993742 391.6460984654078 1248.0324079436496 391.6460984654078L1248.0324079436496 391.6460984654078Q1239.2927490572379 391.6460984654078 1232.7446058432492 392.8870772196717Q1226.1700588259787 394.12805597393566 1222.9487948255492 395.4482461380462L1222.9487948255492 395.4482461380462L1220.8628943662543 380.82053911970127Q1224.2689849896597 379.28911852933305 1232.2693373841694 377.8633131520936Q1240.2432859753972 376.4375077748542 1249.5638285340176 376.4375077748542ZM1337.778935299885 467.50422529520023L1337.778935299885 467.50422529520023Q1337.778935299885 472.65296693523135 1334.3464408731975 476.45511460786975Q1330.91394644651 480.25726228050814 1325.025898314577 480.25726228050814L1325.025898314577 480.25726228050814Q1319.1378501826441 480.25726228050814 1315.7053557559564 476.45511460786975Q1312.2992651325512 472.65296693523135 1312.2992651325512 467.50422529520023L1312.2992651325512 467.50422529520023Q1312.2992651325512 462.3818874584512 1315.7053557559564 458.5797397858129Q1319.1378501826441 454.7775921131745 1325.025898314577 454.7775921131745L1325.025898314577 454.7775921131745Q1330.91394644651 454.7775921131745 1334.3464408731975 458.5797397858129Q1337.778935299885 462.3818874584512 1337.778935299885 467.50422529520023ZM1477.6926888923213 477.7753047719803L1457.5465869879943 477.7753047719803Q1454.2989191842823 469.2204725085439 1451.4473084298036 460.95608208121183Q1448.5956976753248 452.6916916538798 1445.5592602978707 444.1368593904434L1445.5592602978707 444.1368593904434L1385.8602610767914 444.1368593904434L1373.8993381899495 477.7753047719803L1354.6773694004999 477.7753047719803Q1362.2816647457769 456.8634925724691 1368.935423172894 439.0937329635411Q1375.5891816000112 421.3239733546131 1381.9789019943062 405.34967236887536Q1388.342218585319 389.3753713831377 1394.599919963203 374.82687577463935Q1400.8840251443694 360.27838016614106 1407.7226101944618 346.0203263937471L1407.7226101944618 346.0203263937471L1424.6474480983595 346.0203263937471Q1431.4860331484517 360.27838016614106 1437.7701383296182 374.82687577463935Q1444.0278397075022 389.3753713831377 1450.4175601017973 405.34967236887536Q1456.7808766928104 421.3239733546131 1463.4346351199274 439.0937329635411Q1470.0883935470445 456.8634925724691 1477.6926888923213 477.7753047719803L1477.6926888923213 477.7753047719803ZM1391.1938293397977 428.9282686998898L1440.2256920348639 428.9282686998898Q1434.1528172799553 412.3730840419435 1428.1591539348933 396.8740515152856Q1422.1654905898315 381.4014227919099 1415.722962588972 367.14336901951594L1415.722962588972 367.14336901951594Q1409.0692041618547 381.4014227919099 1403.0755408167927 396.8740515152856Q1397.081877471731 412.3730840419435 1391.1938293397977 428.9282686998898L1391.1938293397977 428.9282686998898ZM1512.0968445690423 378.91946528338207L1512.0968445690423 477.7753047719803L1494.406296369961 477.7753047719803L1494.406296369961 378.91946528338207L1512.0968445690423 378.91946528338207ZM1503.172359059655 361.0440904613252L1503.172359059655 361.0440904613252Q1498.419674468857 361.0440904613252 1495.0927952552986 357.9020378707421Q1491.76591604174 354.7863890834412 1491.76591604174 349.45282082043457L1491.76591604174 349.45282082043457Q1491.76591604174 344.1192525574279 1495.0927952552986 341.00360377012703Q1498.419674468857 337.8615511795439 1503.172359059655 337.8615511795439L1503.172359059655 337.8615511795439Q1507.925043650453 337.8615511795439 1511.2519228640115 341.00360377012703Q1514.5788020775701 344.1192525574279 1514.5788020775701 349.45282082043457L1514.5788020775701 349.45282082043457Q1514.5788020775701 354.7863890834412 1511.2519228640115 357.9020378707421Q1507.925043650453 361.0440904613252 1503.172359059655 361.0440904613252Z " fill="#1d1b1b" transform="matrix(0.5777183510203161,0,0,0.5777183510203161,0,65.87542548409182)"/></g></svg>